<?xml version="1.0" encoding="utf-8"?>
<!-- Generator: Adobe Illustrator 25.0.0, SVG Export Plug-In . SVG Version: 6.00 Build 0)  -->
<svg version="1.1" id="Capa_1" xmlns="http://www.w3.org/2000/svg" xmlns:xlink="http://www.w3.org/1999/xlink" x="0px" y="0px"
	 viewBox="0 0 600 600" style="enable-background:new 0 0 600 600;" xml:space="preserve">
<style type="text/css">
	.st0{fill:#FFFFFF;}
	.st1{fill:none;}
	.st2{font-family:'JohnDoe';}
	.st3{font-size:90px;}
</style>
<g>
	<path d="M90,599.3c-49.3,0-89.5-40.2-89.5-89.5v-420C0.5,40.5,40.7,0.3,90,0.3h420c49.3,0,89.5,40.2,89.5,89.5v420
		c0,49.3-40.2,89.5-89.5,89.5H90z"/>
	<path class="st0" d="M510,0.8c23.7,0,46,9.3,62.9,26.1S599,66.1,599,89.8v420c0,23.7-9.3,46-26.1,62.9s-39.2,26.1-62.9,26.1H90
		c-23.7,0-46-9.3-62.9-26.1S1,533.5,1,509.8v-420c0-23.7,9.3-46,26.1-62.9S66.3,0.8,90,0.8H510 M510-0.2H90c-49.5,0-90,40.5-90,90
		v420c0,49.5,40.5,90,90,90h420c49.5,0,90-40.5,90-90v-420C600,40.3,559.5-0.2,510-0.2L510-0.2z"/>
</g>
<rect x="-4" y="147.4" class="st1" width="603" height="315.7"/>
<text transform="matrix(1 0 0 1 87.8926 214.3992)"><tspan x="0" y="0" class="st0 st2 st3">Elije tu</tspan><tspan x="39" y="108" class="st0 st2 st3">propia</tspan><tspan x="-25.5" y="216" class="st0 st2 st3">aventura</tspan></text>
</svg>
