<?xml version="1.0" encoding="utf-8"?>
<!-- Generator: Adobe Illustrator 25.0.0, SVG Export Plug-In . SVG Version: 6.00 Build 0)  -->
<svg version="1.1" id="Capa_1" xmlns="http://www.w3.org/2000/svg" xmlns:xlink="http://www.w3.org/1999/xlink" x="0px" y="0px"
	 viewBox="0 0 600 600" style="enable-background:new 0 0 600 600;" xml:space="preserve">
<style type="text/css">
	.st0{fill:#FFFFFF;}
	.st1{enable-background:new    ;}
	.st2{font-family:'JohnDoe';}
	.st3{font-size:90px;}
</style>
<g>
	<path d="M90,598.5c-49.3,0-89.5-40.2-89.5-89.5V89C0.5,39.7,40.7-0.5,90-0.5h420c49.3,0,89.5,40.2,89.5,89.5v420
		c0,49.3-40.2,89.5-89.5,89.5H90z"/>
	<path class="st0" d="M510,0c23.7,0,46,9.3,62.9,26.1S599,65.3,599,89v420c0,23.7-9.3,46-26.1,62.9S533.7,598,510,598H90
		c-23.7,0-46-9.3-62.9-26.1S1,532.7,1,509V89c0-23.7,9.3-46,26.1-62.9S66.3,0,90,0H510 M510-1H90C40.5-1,0,39.5,0,89v420
		c0,49.5,40.5,90,90,90h420c49.5,0,90-40.5,90-90V89C600,39.5,559.5-1,510-1L510-1z"/>
</g>
<text transform="matrix(1 0 0 1 186.2863 272.918)" class="st1"><tspan x="0" y="0" class="st0 st2 st3">Star</tspan><tspan x="-5.8" y="108" class="st0 st2 st3">Wars</tspan></text>
</svg>
